<?xml version="1.0" encoding="utf-8"?>
<!-- Generator: Adobe Illustrator 23.0.6, SVG Export Plug-In . SVG Version: 6.00 Build 0)  -->
<svg version="1.1" id="Ebene_1" xmlns="http://www.w3.org/2000/svg" xmlns:xlink="http://www.w3.org/1999/xlink" x="0px" y="0px"
	 viewBox="0 0 16 16" style="enable-background:new 0 0 16 16;" xml:space="preserve">
<style type="text/css">
	.st0{fill:#252525;}
</style>
<path class="st0" d="M0.4,4.6l7.3,3.3C7.9,8,8.1,8,8.3,7.9l7.3-3.3c0.5-0.2,0.5-1,0-1.3L8.3,0.1C8.1,0,7.9,0,7.7,0.1L0.4,3.4
	C-0.1,3.6-0.1,4.4,0.4,4.6z M15.6,7.4l-1.8-0.8L8.7,8.9C8.5,9,8.3,9,8,9S7.5,9,7.3,8.9L2.2,6.6L0.4,7.4c-0.5,0.2-0.5,1,0,1.2
	l7.3,3.3c0.2,0.1,0.5,0.1,0.7,0l7.3-3.3C16.1,8.4,16.1,7.6,15.6,7.4L15.6,7.4z M15.6,11.4l-1.8-0.8l-5.1,2.3C8.5,13,8.3,13,8,13
	S7.5,13,7.3,12.9l-5.1-2.3l-1.8,0.8c-0.5,0.2-0.5,1,0,1.2l7.3,3.3c0.2,0.1,0.5,0.1,0.7,0l7.3-3.3C16.1,12.4,16.1,11.6,15.6,11.4z"/>
</svg>
