<?xml version="1.0" encoding="utf-8"?>
<!-- Generator: Adobe Illustrator 23.0.6, SVG Export Plug-In . SVG Version: 6.00 Build 0)  -->
<svg version="1.1" id="Ebene_1" xmlns="http://www.w3.org/2000/svg" xmlns:xlink="http://www.w3.org/1999/xlink" x="0px" y="0px"
	 viewBox="0 0 16 16" style="enable-background:new 0 0 16 16;" xml:space="preserve">
<style type="text/css">
	.st0{fill:#252525;}
</style>
<path class="st0" d="M9.2,1h6C15.7,1,16,1.3,16,1.8v5c0,0.4-0.3,0.8-0.8,0.8h-6c-0.4,0-0.8-0.3-0.8-0.8v-5C8.5,1.3,8.8,1,9.2,1z
	 M6.8,1h-6C0.3,1,0,1.3,0,1.8v5c0,0.4,0.3,0.8,0.8,0.8h6c0.4,0,0.8-0.3,0.8-0.8v-5C7.5,1.3,7.2,1,6.8,1z M0,9.2v5
	C0,14.7,0.3,15,0.8,15h6c0.4,0,0.8-0.3,0.8-0.8v-5c0-0.4-0.3-0.8-0.8-0.8h-6C0.3,8.5,0,8.8,0,9.2z M9.2,15h6c0.4,0,0.8-0.3,0.8-0.8
	v-5c0-0.4-0.3-0.8-0.8-0.8h-6c-0.4,0-0.8,0.3-0.8,0.8v5C8.5,14.7,8.8,15,9.2,15z"/>
</svg>
