<?xml version="1.0" encoding="utf-8"?>
<!-- Generator: Adobe Illustrator 23.0.6, SVG Export Plug-In . SVG Version: 6.00 Build 0)  -->
<svg version="1.1" id="Ebene_1" xmlns="http://www.w3.org/2000/svg" xmlns:xlink="http://www.w3.org/1999/xlink" x="0px" y="0px"
	 viewBox="0 0 16 16" style="enable-background:new 0 0 16 16;" xml:space="preserve">
<style type="text/css">
	.st0{fill:#252525;}
</style>
<path class="st0" d="M5.2,10.4c-0.1,0-0.1,0-0.2,0c-0.3,0.1-0.7,0.2-1,0.2s-0.7-0.1-1-0.2c-0.1,0-0.1,0-0.2,0
	c-1.6,0-2.8,1.3-2.8,2.8c0,0.7,0.5,1.2,1.2,1.2h5.6c0.7,0,1.2-0.5,1.2-1.2C8,11.7,6.8,10.4,5.2,10.4z M4,9.6c1.3,0,2.4-1.1,2.4-2.4
	S5.3,4.8,4,4.8S1.6,5.9,1.6,7.2S2.7,9.6,4,9.6z M14.8,1.6H5.2C4.5,1.6,4,2.2,4,2.8V4c0.6,0,1.1,0.2,1.6,0.4V3.2h8.8v7.2h-1.6V8.8
	H9.6v1.6H7.7c0.5,0.4,0.8,1,1,1.6h6.1c0.7,0,1.2-0.6,1.2-1.2V2.8C16,2.2,15.5,1.6,14.8,1.6z"/>
</svg>
