<?xml version="1.0" encoding="utf-8"?>
<!-- Generator: Adobe Illustrator 26.3.1, SVG Export Plug-In . SVG Version: 6.00 Build 0)  -->
<svg version="1.1" id="Ebene_1" xmlns="http://www.w3.org/2000/svg" xmlns:xlink="http://www.w3.org/1999/xlink" x="0px" y="0px"
	 viewBox="0 0 16 16" style="enable-background:new 0 0 16 16;" xml:space="preserve">
<style type="text/css">
	.st0{opacity:0.5;}
</style>
<path d="M5.5,3.7c2.2,0,3.3,1.7,3.3,3.3c0,1.7-1.1,3.3-3.3,3.3H3.1V3.7H5.5z M5.5,9.4C7,9.4,7.8,8.2,7.8,7c0-1.2-0.8-2.4-2.3-2.4
	H4.1v4.7H5.5z"/>
<path d="M8.9,9l2.5-3.3h1.2L10.1,9l2.8,3.4h-1.3L8.9,9L8.9,9z"/>
<g class="st0">
	<path d="M8,16c-2.1,0-4.1-0.8-5.7-2.3C0.8,12.1,0,10.1,0,8c0-2.1,0.8-4.1,2.3-5.7C3.9,0.8,5.9,0,8,0s4.1,0.8,5.7,2.3
		C15.2,3.9,16,5.9,16,8c0,2.1-0.8,4.1-2.3,5.7C12.1,15.2,10.1,16,8,16z M8,0.5c-2,0-3.9,0.8-5.3,2.2C1.3,4.1,0.5,6,0.5,8
		c0,2,0.8,3.9,2.2,5.3C4.1,14.7,6,15.5,8,15.5s3.9-0.8,5.3-2.2c1.4-1.4,2.2-3.3,2.2-5.3c0-2-0.8-3.9-2.2-5.3C11.9,1.3,10,0.5,8,0.5z
		"/>
</g>
<path d="M8,15.5c-2,0-3.9-0.8-5.3-2.2C1.3,11.9,0.5,10,0.5,8c0-2,0.8-3.9,2.2-5.3C4.1,1.3,6,0.5,8,0.5s3.9,0.8,5.3,2.2
	c0,0,0.1,0.1,0.1,0.1l0.3-0.3c0,0-0.1-0.1-0.1-0.1C12.1,0.8,10.1,0,8,0S3.9,0.8,2.3,2.3C0.8,3.9,0,5.9,0,8c0,2.1,0.8,4.1,2.3,5.7
	C3.9,15.2,5.9,16,8,16V15.5z"/>
</svg>
