<?xml version="1.0" encoding="utf-8"?>
<!-- Generator: Adobe Illustrator 23.0.6, SVG Export Plug-In . SVG Version: 6.00 Build 0)  -->
<svg version="1.1" id="Ebene_1" xmlns="http://www.w3.org/2000/svg" xmlns:xlink="http://www.w3.org/1999/xlink" x="0px" y="0px"
	 viewBox="0 0 100 100" style="enable-background:new 0 0 100 100;" xml:space="preserve">
<path d="M42.2,0h15.6c2.6,0,4.7,2.1,4.7,4.7v32.8h17.1c3.5,0,5.2,4.2,2.8,6.7L52.7,73.9c-1.5,1.5-3.9,1.5-5.3,0L17.6,44.2
	c-2.5-2.5-0.7-6.7,2.8-6.7h17.1V4.7C37.5,2.1,39.6,0,42.2,0z M100,73.4v21.9c0,2.6-2.1,4.7-4.7,4.7H4.7C2.1,100,0,97.9,0,95.3V73.4
	c0-2.6,2.1-4.7,4.7-4.7h28.7l9.6,9.6c3.9,3.9,10.3,3.9,14.2,0l9.6-9.6h28.7C97.9,68.8,100,70.8,100,73.4z M75.8,90.6
	c0-2.1-1.8-3.9-3.9-3.9S68,88.5,68,90.6s1.8,3.9,3.9,3.9S75.8,92.8,75.8,90.6z M88.3,90.6c0-2.1-1.8-3.9-3.9-3.9s-3.9,1.8-3.9,3.9
	s1.8,3.9,3.9,3.9S88.3,92.8,88.3,90.6z"/>
</svg>
