<?xml version="1.0" encoding="utf-8"?>
<!-- Generator: Adobe Illustrator 23.0.6, SVG Export Plug-In . SVG Version: 6.00 Build 0)  -->
<svg version="1.1" id="Ebene_1" xmlns="http://www.w3.org/2000/svg" xmlns:xlink="http://www.w3.org/1999/xlink" x="0px" y="0px"
	 viewBox="0 0 100 100" style="enable-background:new 0 0 100 100;" xml:space="preserve">
<g>
	<path d="M97.1,30.4c-0.4,0-0.8,0.1-1.1,0.2l-0.5,0.2L57.2,50.7l-0.9,0.5l0,0c-1.7,1-2.8,2.8-2.8,4.8v41.5c0,1.4,1.2,2.6,2.8,2.6
		c0.5,0,1-0.1,1.3-0.3c0,0,0.1,0,0.1-0.1l39-20.7l0,0c1.8-1,3-2.8,3-4.9V33C100,31.5,98.7,30.4,97.1,30.4z"/>
	<path d="M94.2,19.3L53.7,1.1c0,0-2.4-1.1-3.7-1.1s-3.7,1.1-3.7,1.1L5.7,19.3c0,0-1.8,0.7-1.8,2.1c0,1.5,1.8,2.6,1.8,2.6l40.8,21.5
		l0.7,0.3c0.8,0.4,1.8,0.6,2.8,0.6s2-0.2,2.8-0.6l0.6-0.3L94.2,24c0,0,1.7-0.9,1.7-2.5C95.9,20,94.2,19.3,94.2,19.3z"/>
	<path d="M43.6,51.2l-0.9-0.5L4.5,30.9L4,30.6c-0.3-0.2-0.7-0.2-1.1-0.2C1.3,30.4,0,31.6,0,33v41c0,2.1,1.2,3.9,3.1,4.9l0,0l39,20.7
		l0,0c0.4,0.2,0.9,0.4,1.5,0.4c1.5,0,2.8-1.2,2.8-2.6V56C46.4,54,45.3,52.2,43.6,51.2z"/>
</g>
</svg>
