<?xml version="1.0" encoding="utf-8"?>
<!-- Generator: Adobe Illustrator 23.0.6, SVG Export Plug-In . SVG Version: 6.00 Build 0)  -->
<svg version="1.1" id="Ebene_1" xmlns="http://www.w3.org/2000/svg" xmlns:xlink="http://www.w3.org/1999/xlink" x="0px" y="0px"
	 viewBox="0 0 16 16" style="enable-background:new 0 0 16 16;" xml:space="preserve">
<style type="text/css">
	.st0{fill:#252525;}
</style>
<g>
	<circle class="st0" cx="5.7" cy="4.7" r="3.3"/>
	<path class="st0" d="M8,8.8H7.5C7,9.1,6.3,9.2,5.7,9.2S4.4,9.1,3.8,8.8H3.4C1.5,8.8,0,10.3,0,12.2v1.1c0,0.7,0.5,1.2,1.2,1.2h8.9
		c0.7,0,1.2-0.5,1.2-1.2v-1.1C11.4,10.3,9.8,8.8,8,8.8z"/>
	<path class="st0" d="M13.2,7.7h2.5c0.2,0,0.3-0.1,0.3-0.3V5.9c0-0.2-0.1-0.3-0.3-0.3h-2.5V4.5c0-0.5-0.7-0.8-1-0.4L10,6.2
		c-0.2,0.2-0.2,0.6,0,0.9l2.2,2.2c0.4,0.4,1,0.1,1-0.4V7.7L13.2,7.7z"/>
</g>
</svg>
