<?xml version="1.0" encoding="utf-8"?>
<!-- Generator: Adobe Illustrator 23.0.6, SVG Export Plug-In . SVG Version: 6.00 Build 0)  -->
<svg version="1.1" id="Ebene_1" xmlns="http://www.w3.org/2000/svg" xmlns:xlink="http://www.w3.org/1999/xlink" x="0px" y="0px"
	 viewBox="0 0 16 16" style="enable-background:new 0 0 16 16;" xml:space="preserve">
<style type="text/css">
	.st0{fill:#252525;}
</style>
<path class="st0" d="M12.5,2H10c0-1.1-0.9-2-2-2C6.9,0,6,0.9,6,2H3.5C2.7,2,2,2.7,2,3.5v11C2,15.3,2.7,16,3.5,16h9
	c0.8,0,1.5-0.7,1.5-1.5v-11C14,2.7,13.3,2,12.5,2z M8,1.2c0.4,0,0.8,0.3,0.8,0.8S8.4,2.8,8,2.8S7.2,2.4,7.2,2S7.6,1.2,8,1.2z M5,4.2
	C5,4.1,5.1,4,5.2,4h5.6C10.9,4,11,4.1,11,4.2v0.6C11,4.9,10.9,5,10.8,5H5.2C5.1,5,5,4.9,5,4.8V4.2z M12.3,12.7
	c0,0.1-0.1,0.2-0.2,0.2H3.8c-0.1,0-0.2-0.1-0.2-0.2v-0.6c0-0.1,0.1-0.2,0.2-0.2h8.3c0.1,0,0.2,0.1,0.2,0.2V12.7z M12.3,10.5
	c0,0.1-0.1,0.2-0.2,0.2H3.8c-0.1,0-0.2-0.1-0.2-0.2V9.9c0-0.1,0.1-0.2,0.2-0.2h8.3c0.1,0,0.2,0.1,0.2,0.2V10.5z M12.3,8.2
	c0,0.1-0.1,0.2-0.2,0.2H3.8c-0.1,0-0.2-0.1-0.2-0.2V7.6c0-0.1,0.1-0.2,0.2-0.2h8.3c0.1,0,0.2,0.1,0.2,0.2V8.2z"/>
</svg>
