<?xml version="1.0" encoding="utf-8"?>
<!-- Generator: Adobe Illustrator 23.0.6, SVG Export Plug-In . SVG Version: 6.00 Build 0)  -->
<svg version="1.1" id="Ebene_1" xmlns="http://www.w3.org/2000/svg" xmlns:xlink="http://www.w3.org/1999/xlink" x="0px" y="0px"
	 viewBox="0 0 16 16" style="enable-background:new 0 0 16 16;" xml:space="preserve">
<style type="text/css">
	.st0{fill:#252525;}
</style>
<path class="st0" d="M15.1,1.8c-1.5,0.1-4.5,0.4-6.4,1.5C8.5,3.4,8.4,3.5,8.4,3.7v10.1c0,0.3,0.4,0.5,0.6,0.4c1.9-1,4.7-1.2,6.1-1.3
	c0.5,0,0.8-0.4,0.8-0.9V2.6C16,2.1,15.6,1.8,15.1,1.8z M7.4,3.3C5.5,2.2,2.5,1.9,0.9,1.8C0.4,1.8,0,2.1,0,2.6V12
	c0,0.5,0.4,0.8,0.8,0.9c1.4,0.1,4.2,0.3,6.1,1.3c0.3,0.1,0.6-0.1,0.6-0.4V3.7C7.6,3.5,7.5,3.4,7.4,3.3z"/>
</svg>
