<?xml version="1.0" encoding="utf-8"?>
<!-- Generator: Adobe Illustrator 23.0.6, SVG Export Plug-In . SVG Version: 6.00 Build 0)  -->
<svg version="1.1" id="Ebene_1" xmlns="http://www.w3.org/2000/svg" xmlns:xlink="http://www.w3.org/1999/xlink" x="0px" y="0px"
	 viewBox="0 0 16 16" style="enable-background:new 0 0 16 16;" xml:space="preserve">
<style type="text/css">
	.st0{fill:#252525;}
</style>
<g>
	<path class="st0" d="M15.5,5.2c-0.1,0-0.1,0-0.2,0l-0.1,0L9.2,8.1L9,8.2c0,0,0,0,0,0C8.7,8.3,8.6,8.6,8.6,8.8v5.9
		c0,0.2,0.2,0.4,0.5,0.4c0.1,0,0.2,0,0.2,0c0,0,0,0,0,0l6.2-2.9l0,0c0.3-0.1,0.5-0.4,0.5-0.7V5.6C16,5.4,15.8,5.2,15.5,5.2z"/>
	<path class="st0" d="M15.1,3.7L8.6,1.1c0,0-0.4-0.2-0.6-0.2S7.4,1.1,7.4,1.1L0.9,3.7c0,0-0.3,0.1-0.3,0.3c0,0.2,0.3,0.4,0.3,0.4
		l6.5,3l0.1,0C7.7,7.5,7.8,7.5,8,7.5c0.2,0,0.3,0,0.5-0.1l0.1,0l6.5-3.1c0,0,0.3-0.1,0.3-0.4C15.3,3.7,15.1,3.7,15.1,3.7z"/>
	<path class="st0" d="M7,8.2L6.8,8.1L0.7,5.3l-0.1,0c-0.1,0-0.1,0-0.2,0C0.2,5.2,0,5.4,0,5.6v5.8c0,0.3,0.2,0.6,0.5,0.7l0,0L6.7,15
		l0,0c0.1,0,0.1,0.1,0.2,0.1c0.2,0,0.5-0.2,0.5-0.4V8.8C7.4,8.6,7.3,8.3,7,8.2z"/>
</g>
</svg>
