<?xml version="1.0" encoding="utf-8"?>
<!-- Generator: Adobe Illustrator 23.0.6, SVG Export Plug-In . SVG Version: 6.00 Build 0)  -->
<svg version="1.1" id="Ebene_1" xmlns="http://www.w3.org/2000/svg" xmlns:xlink="http://www.w3.org/1999/xlink" x="0px" y="0px"
	 viewBox="0 0 16 16" style="enable-background:new 0 0 16 16;" xml:space="preserve">
<style type="text/css">
	.st0{fill:#252525;}
</style>
<path class="st0" d="M15.5,9.9l-1.4-0.8c0.1-0.7,0.1-1.5,0-2.3l1.4-0.8c0.2-0.1,0.2-0.3,0.2-0.5c-0.4-1.1-1-2.2-1.8-3.1
	c-0.1-0.1-0.3-0.2-0.5-0.1L12,3.3c-0.6-0.5-1.2-0.9-2-1.1V0.6c0-0.2-0.1-0.3-0.3-0.4c-1.2-0.3-2.4-0.3-3.5,0c-0.2,0-0.3,0.2-0.3,0.4
	v1.6C5.2,2.4,4.6,2.8,4,3.3L2.6,2.5C2.4,2.4,2.2,2.4,2.1,2.6C1.3,3.4,0.7,4.5,0.4,5.6C0.3,5.8,0.4,6,0.5,6.1l1.4,0.8
	c-0.1,0.7-0.1,1.5,0,2.3L0.5,9.9c-0.2,0.1-0.2,0.3-0.2,0.5c0.4,1.1,1,2.2,1.8,3.1c0.1,0.1,0.3,0.2,0.5,0.1L4,12.7
	c0.6,0.5,1.2,0.9,2,1.1v1.6c0,0.2,0.1,0.3,0.3,0.4c1.2,0.3,2.4,0.3,3.5,0c0.2,0,0.3-0.2,0.3-0.4v-1.6c0.7-0.3,1.4-0.6,2-1.1l1.4,0.8
	c0.2,0.1,0.4,0.1,0.5-0.1c0.8-0.9,1.4-1.9,1.8-3.1C15.7,10.2,15.6,10,15.5,9.9z M8,10.6c-1.4,0-2.6-1.2-2.6-2.6S6.6,5.4,8,5.4
	s2.6,1.2,2.6,2.6S9.4,10.6,8,10.6z"/>
</svg>
